<?xml version="1.0" encoding="utf-8"?>
<!-- Generator: Adobe Illustrator 24.0.1, SVG Export Plug-In . SVG Version: 6.00 Build 0)  -->
<svg version="1.1" id="Layer_1" xmlns="http://www.w3.org/2000/svg" xmlns:xlink="http://www.w3.org/1999/xlink" x="0px" y="0px"
	 viewBox="0 0 1080 1080" style="enable-background:new 0 0 1080 1080;" xml:space="preserve">
<style type="text/css">
	.st0{fill:#149FDA;}
	.st1{opacity:0.97;fill:#28AC34;}
	.st2{opacity:0.97;}
	.st3{fill:#28AC34;}
</style>
<g>
	<path class="st0" d="M431.4,369.18c-5.25-0.62-10.6-0.95-16.02-0.95c-3.02,0-6.01,0.11-8.98,0.3
		c-42.29-0.55-84.61-0.16-126.92-0.18c-3.87,0-7.74,0.55-12.15,0.89v268.41c4.41,0.34,8.28,0.89,12.15,0.89
		c41.15-0.02,82.31,0.36,123.44-0.12c0.02,0,0.02,0,0.02,0c4.1,0.37,8.24,0.57,12.44,0.57c8.51,0,16.84-0.79,24.93-2.28
		c10.92-2.03,21.38-5.37,31.21-9.87c-0.48-0.77-0.93-1.53-1.37-2.32c-7.89-13.88-15.79-27.82-23.7-41.79c-9.72,3.87-20.32,6-31.42,6
		h-95.44c-1.3-0.3-2.64-0.77-4.1-1.11V419.29c1.46-0.34,2.8-0.8,4.1-1.11h95.44c46.37,0,84.11,37.08,85.2,83.22
		c3.68,6.69,7.49,13.45,11.37,20.31c0.23,0.41,0.46,0.84,0.71,1.25l32.21-60.08C528.77,412.93,484.86,375.48,431.4,369.18z"/>
	<path class="st1" d="M751.4,366.72c20.85,0,40.05,0,61.27,0c-2,4.67-3.19,8.28-4.98,11.55c-42.9,78.18-85.83,156.36-128.92,234.44
		c-3.49,6.33-7.63,12.51-12.48,17.83c-11.58,12.72-22.95,12.76-34.51,0.21c-4.64-5.03-8.59-10.87-12.03-16.82
		c-10.94-18.9-21.48-38.04-32.21-57.06c-1.75-3.1-3.72-6.07-6.14-9.99c-12.29,22.31-23.81,43.78-35.94,64.9
		c-4.31,7.5-9.39,14.86-15.43,21c-9.74,9.9-19.85,9.81-29.75,0.15c-5.14-5.01-9.7-10.97-13.25-17.22
		c-32.2-56.65-64.13-113.46-96.09-170.25c-1.21-2.15-1.99-4.53-2.99-6.85c21.22-6.49,62.96-1.14,74.46,24.86
		c14.52,32.81,33.64,63.58,51.56,96.71c34.98-65.26,69.3-129.29,103.62-193.33c20.44,0,39.94,0,62.33,0
		c-23.37,42.74-45.78,83.71-68.56,125.37c11.7,21.84,23.46,43.8,36.37,67.9C682.97,494.38,717.1,430.71,751.4,366.72z"/>
	<g class="st2">
		<path class="st3" d="M285.41,665.66h-18.07v48.21h17.04c18.28,0,25.73-10.21,25.73-24.48
			C310.1,677.32,303.27,665.66,285.41,665.66z M283.62,701.05v-22.14c6.62-1.24,10.07,3.79,10.07,10.48
			C293.69,696.29,290.24,701.94,283.62,701.05z"/>
		<rect x="316.66" y="665.66" class="st3" width="16.62" height="48.21"/>
		<path class="st3" d="M366.25,696.15h6.14v4.76h-6.14c-6.9,0-9.59-5.72-9.59-11.66c0-6.35,2.97-12.28,8.97-12.28
			c3.86,0,5.52,1.59,6.69,5.38l14.28-6.48c-3.03-5.66-7.52-11.38-20.97-11.38c-16.97,0-25.52,10.42-25.52,25.31
			c0,14.48,8.14,24.07,26.07,24.07h2.41l3.79-3.31v3.31h15.52v-28.35h-21.66V696.15z"/>
		<rect x="395.43" y="665.66" class="st3" width="16.62" height="48.21"/>
		<polygon class="st3" points="419.08,678.56 428.46,678.56 428.46,713.87 445.15,713.87 445.15,678.56 454.53,678.56 
			454.53,665.66 419.08,665.66 		"/>
		<path class="st3" d="M468.47,665.66l-13.79,48.21h15.24l2.21-8.76h10.62l2,8.76h16.48l-13.73-48.21H468.47z M473.85,693.53
			l3.66-15.04l3.45,15.04H473.85z"/>
		<polygon class="st3" points="522.55,701.18 522.55,665.66 506.27,665.66 506.27,713.87 535.86,713.87 535.86,701.18 		"/>
	</g>
	<g>
		<polygon class="st0" points="599.45,694.7 593.04,665.66 581.73,665.66 575.25,694.7 572.76,665.66 556,665.66 562.76,713.87 
			581.25,713.87 587.38,690.42 593.52,713.87 612.01,713.87 618.77,665.66 601.94,665.66 		"/>
		<path class="st0" d="M633.46,665.66l-13.79,48.21h15.24l2.21-8.76h10.62l2,8.76h16.49l-13.73-48.21H633.46z M638.84,693.53
			l3.66-15.04l3.45,15.04H638.84z"/>
		<path class="st0" d="M726.58,665.66l-13.47,47.06l-11.78-27.4l9.79-19.66h-16.35l-7.1,14.83v-14.83h-16.42v48.21h16.42v-21.86
			l8,21.86h17.11h0.82h14.42l2.21-8.76h10.62l2,8.76h16.48l-13.73-48.21H726.58z M731.96,693.53l3.66-15.04l3.45,15.04H731.96z"/>
		<path class="st0" d="M798.94,665.66H779.9l-13.79,48.21h15.24l2.21-8.76h10.62l2,8.76h16.49L798.94,665.66z M785.28,693.53
			l3.66-15.04l3.45,15.04H785.28z"/>
	</g>
</g>
</svg>
